<?xml version="1.0" encoding="iso-8859-1"?>
<!-- Generator: Adobe Illustrator 19.0.0, SVG Export Plug-In . SVG Version: 6.00 Build 0)  -->
<svg version="1.1" id="Capa_1" xmlns="http://www.w3.org/2000/svg" xmlns:xlink="http://www.w3.org/1999/xlink" x="0px" y="0px"
	 viewBox="0 0 512 512" style="enable-background:new 0 0 512 512;" xml:space="preserve">
<g>
	<g>
		<g>
			<path d="M345.863,281.853c19.152-8.872,38.221-15.344,56.953-19.308c5.403-1.143,8.856-6.45,7.713-11.853
				c-1.143-5.403-6.444-8.857-11.854-7.713c-21.683,4.588-43.704,12.261-65.728,22.865c-12.303-14.673-26.387-30.015-41.582-45.21
				c-16.147-16.146-32.462-31.048-47.961-43.878c13.412-16.959,24.359-35.947,32.641-56.728
				c12.913-32.401,19.461-69.419,19.461-110.029c0-5.523-4.478-10-10-10s-10,4.477-10,10c0,62.572-16.044,114.358-47.728,154.32
				c-5.979-4.561-11.776-8.753-17.312-12.486c-29.637-19.989-47.289-24.674-57.155-15.162c-0.07,0.065-0.143,0.129-0.211,0.196
				c-0.01,0.01-0.02,0.019-0.03,0.028c-0.006,0.006-0.011,0.013-0.017,0.018c-2.527,2.533-4.087,5.596-4.678,9.251L0.778,498.133
				c-1.57,3.744-0.72,8.067,2.151,10.938C4.843,510.984,7.401,512,10.003,512c1.302,0,2.616-0.254,3.865-0.778
				c0.028-0.012,0,0,0.028-0.012l351.941-147.588c3.337-0.54,6.172-1.904,8.569-4.061c0.174-0.145,0.337-0.299,0.5-0.453
				c0.064-0.063,0.133-0.115,0.196-0.179c0.01-0.01,0.018-0.021,0.027-0.03c0.069-0.068,0.133-0.142,0.199-0.213
				c9.511-9.867,4.826-27.518-15.163-57.153C355.94,295.269,351.139,288.675,345.863,281.853z M79.315,440.759
				c-2.087,13.013-6.728,21.567-8.961,25.087l-41.679,17.478l42.329-100.938C79.286,403.147,82.157,423.035,79.315,440.759z
				 M140.851,406.923c-4.032,22.984-14.726,34.063-17.767,36.811l-26.351,11.05c5.858-20.854,7.398-53.957-15.241-97.409
				l29.968-71.459C142.553,344.866,144.886,383.926,140.851,406.923z M176.522,421.323l-21.554,9.04
				c2.054-5.189,3.865-11.099,5.177-17.796c8.004-40.853-5.062-91.365-38.815-150.187l10.82-25.801
				c8.564,10.305,18.322,24.89,22.274,34.086c1.627,3.787,5.316,6.055,9.192,6.055c1.317,0,2.657-0.263,3.944-0.815
				c5.074-2.181,7.419-8.061,5.239-13.136c-5.864-13.644-20.733-34.874-32.107-46.559l16.533-39.425
				c2.896,5.31,6.483,11.128,10.785,17.506c2.962,4.392,6.207,8.945,9.697,13.625c34.207,51.906,33.433,105.035,26.746,140.484
				C197.342,386.105,182.115,413.71,176.522,421.323z M253.575,389.012l-47.474,19.908c6.855-15.036,13.848-34.775,18.004-56.812
				c4.642-24.614,6.683-56.982-1.906-91.935c4.737,5.004,9.61,10.019,14.609,15.018c14.958,14.957,30.056,28.836,44.52,41
				C279.894,363.404,258.239,384.918,253.575,389.012z M288.045,374.557c5.353-11.075,10.08-25.348,12.188-43.175
				c6.036,4.608,11.889,8.842,17.475,12.609c6.381,4.304,12.198,7.889,17.51,10.785L288.045,374.557z M323.217,323.485
				c-21.74-15.403-47.405-37.577-72.266-62.438c-24.86-24.86-47.035-50.525-62.437-72.265
				c-14.895-21.023-18.909-31.758-19.966-36.408c4.65,1.058,15.385,5.072,36.408,19.966c3.118,2.209,6.322,4.57,9.586,7.045
				c-0.701,0.722-1.393,1.451-2.106,2.164c-3.905,3.905-3.905,10.237,0,14.143c1.953,1.952,4.512,2.929,7.071,2.929
				c2.559,0,5.119-0.977,7.071-2.929c1.256-1.256,2.493-2.529,3.716-3.814c15.169,12.539,31.208,27.179,46.929,42.9
				c13.519,13.519,26.23,27.271,37.504,40.504c-1.806,1.003-3.611,2.023-5.416,3.065c-4.783,2.762-6.422,8.878-3.66,13.66
				c1.852,3.208,5.213,5.002,8.67,5.002c1.696,0,3.416-0.433,4.99-1.342c2.776-1.604,5.554-3.143,8.331-4.646
				c4.345,5.518,8.377,10.883,12.018,16.023c14.896,21.023,18.909,31.758,19.966,36.408
				C354.974,342.393,344.239,338.379,323.217,323.485z"/>
			<path d="M180.884,288.533c-2.267-5.037-8.186-7.283-13.223-5.016c-4.88,2.196-7.14,7.822-5.214,12.751
				c1.514,3.963,5.299,6.43,9.34,6.43c1.096,0,2.21-0.182,3.304-0.564c5.212-1.824,7.96-7.529,6.135-12.742
				C181.131,289.121,181.002,288.795,180.884,288.533z"/>
			<path d="M373.433,154.691c1.953,1.952,4.512,2.929,7.071,2.929c2.56,0,5.118-0.977,7.071-2.929
				c22.343-22.343,58.542-32.583,84.971-34.716c5.505-0.444,9.607-5.268,9.163-10.772c-0.445-5.505-5.258-9.591-10.772-9.163
				c-29.973,2.419-71.326,14.331-97.504,40.509C369.528,144.454,369.528,150.786,373.433,154.691z"/>
			<path d="M504.589,101.963c-0.283-0.076-0.571-0.151-0.862-0.224c-5.359-1.336-10.785,1.929-12.12,7.288
				c-1.334,5.359,1.929,10.786,7.288,12.12l0.511,0.132c0.868,0.233,1.74,0.345,2.598,0.345c4.414,0,8.454-2.945,9.652-7.411
				C513.087,108.879,509.924,103.395,504.589,101.963z"/>
			<path d="M73.504,83.621h10v10c0,5.522,4.477,10,10,10c5.523,0,10-4.478,10-10v-10h10c5.523,0,10-4.478,10-10s-4.477-10-10-10h-10
				v-10c0-5.522-4.477-10-10-10c-5.523,0-10,4.478-10,10v10h-10c-5.523,0-10,4.478-10,10C63.504,79.144,67.981,83.621,73.504,83.621
				z"/>
			<path d="M307.502,180.62h10.001v9.999c0,5.523,4.478,10,10,10c5.523,0,10-4.477,10-10v-9.999h9.999c5.522,0,10-4.478,10-10
				c0-5.522-4.478-10-10-10h-9.999v-10.001c0-5.522-4.477-10-10-10c-5.522,0-10,4.478-10,10v10.001h-10.001c-5.522,0-10,4.478-10,10
				C297.502,176.143,301.98,180.62,307.502,180.62z"/>
			<path d="M446.501,417.618h-10v-10c0-5.522-4.478-10-10-10c-5.522,0-10,4.478-10,10v10h-10c-5.522,0-10,4.478-10,10
				c0,5.522,4.478,10,10,10h10v10c0,5.522,4.478,10,10,10c5.522,0,10-4.478,10-10v-10h10c5.522,0,10-4.478,10-10
				C456.501,422.096,452.024,417.618,446.501,417.618z"/>
			<path d="M389.969,60.001c16.542,0,30-13.458,30-30s-13.458-30-30-30s-30,13.458-30,30S373.427,60.001,389.969,60.001z
				 M389.969,20.001c5.514,0,10,4.486,10,10c0,5.514-4.486,10-10,10s-10-4.486-10-10C379.969,24.487,384.455,20.001,389.969,20.001z
				"/>
			<path d="M452.501,173.619c-16.542,0-30,13.458-30,30s13.458,30,30,30s30-13.458,30-30S469.042,173.619,452.501,173.619z
				 M452.501,213.619c-5.514,0-10-4.486-10-10s4.486-10,10-10s10,4.486,10,10S458.015,213.619,452.501,213.619z"/>
			<path d="M198.503,95.62c16.542,0,30-13.458,30-30s-13.458-30-30-30s-30,13.458-30,30S181.961,95.62,198.503,95.62z
				 M198.503,55.62c5.514,0,10,4.486,10,10c0,5.514-4.486,10-10,10s-10-4.486-10-10C188.503,60.107,192.989,55.62,198.503,55.62z"/>
			<path d="M449.19,294.058c0-5.508-4.492-10-10-10c-5.508,0-10,4.492-10,10s4.492,10,10,10
				C444.698,304.058,449.19,299.565,449.19,294.058z"/>
			<path d="M335.189,95.06c5.508,0,10-4.492,10-10s-4.492-10-10-10c-5.508,0-10,4.492-10,10
				C325.19,90.567,329.682,95.06,335.189,95.06z"/>
			<path d="M469.189,359.057c-5.508,0-10.001,4.493-10.001,10.001c0,5.508,4.493,10,10.001,10c5.507,0,10-4.492,10-10
				C479.189,363.55,474.696,359.057,469.189,359.057z"/>
			<path d="M139.192,30.001c5.508,0,10-4.492,10-10c0-5.508-4.492-10-10-10s-10,4.492-10,10
				C129.192,25.509,133.684,30.001,139.192,30.001z"/>
		</g>
	</g>
</g>
<g>
</g>
<g>
</g>
<g>
</g>
<g>
</g>
<g>
</g>
<g>
</g>
<g>
</g>
<g>
</g>
<g>
</g>
<g>
</g>
<g>
</g>
<g>
</g>
<g>
</g>
<g>
</g>
<g>
</g>
</svg>
