<svg id="Layer_1" enable-background="new 0 0 512 512" height="512" viewBox="0 0 512 512" width="512" xmlns="http://www.w3.org/2000/svg"><path d="m336.057 16c0-8.84-7.16-16-16-16s-16 7.16-16 16v96c0 8.82-7.18 16-16 16s-16-7.18-16-16v-96c0-8.84-7.16-16-16-16s-16 7.16-16 16v96c0 8.82-7.18 16-16 16s-16-7.18-16-16v-96c0-8.84-7.16-16-16-16s-16 7.16-16 16c0 104.778-.115 97.503.27 101.06-1.047 5.527-1.739 61.673 23.25 93.29 4.54 5.74 9.72 10.59 15.46 14.5.73.96 1.57 1.85 2.53 2.65 12.61 10.53 22.49 33.34 22.49 51.93 0 53.615 3.296 95.75-24.65 157.57-5.02 11.1-7.35 19.51-7.35 26.45 0 26.77 21.53 48.55 48 48.55s48-21.78 48-48.55c0-6.94-2.33-15.35-7.35-26.45-28.336-62.683-24.65-107.734-24.65-157.57 0-18.59 9.88-41.4 22.49-51.93.96-.8 1.8-1.69 2.53-2.65 31.812-21.671 38.98-66.501 38.98-104.85 0-165.31 0-76.637 0-104z"/></svg>