<svg id="Capa_1" enable-background="new 0 0 512.031 512.031" height="512" viewBox="0 0 512.031 512.031" width="512" xmlns="http://www.w3.org/2000/svg"><g><path d="m109.688 215.97-49.12 131.02v.01c12.02 48.02 38.44 90.47 75.84 122.49l61.63-23.11c-65.461-58.631-97.771-144.871-88.35-230.41z"/><path d="m43.938 391.34-37.65 100.39c-4.5 11.99 7.23 23.85 19.31 19.31l79.43-29.78c-26.642-25.858-47.309-56.674-61.09-89.92z"/><path d="m214.988 203.75-55.99-55.99c-45.396 102.402-14.361 219.447 71.29 286.53l59.76-22.41c-52.484-54.2-80.871-129.853-75.06-208.13z"/><path d="m244.278 233.04c2.3 63.65 30.02 123.8 76.92 167.15h.01l43.8-16.42c10.23-3.84 13.03-16.97 5.34-24.66z"/><g><path d="m353.836 280.165c5.858 5.858 15.355 5.858 21.213 0 56.432-56.432 111.381-38.985 111.93-38.803 7.859 2.619 16.354-1.628 18.974-9.487 2.621-7.857-1.628-16.354-9.487-18.974-2.958-.985-73.232-23.347-142.629 46.051-5.859 5.857-5.86 15.356-.001 21.213z"/></g><path d="m258.378 163.49c69.4-69.39 47.03-139.67 46.05-142.63-2.62-7.86-11.12-12.1-18.98-9.48-7.85 2.62-12.1 11.11-9.48 18.97.18.55 17.63 55.5-38.81 111.93-5.821 5.821-5.88 15.312 0 21.21 5.889 5.888 15.378 5.842 21.22 0z"/><path d="m290.196 195.313c-5.858 5.858-5.858 15.355 0 21.213 5.804 5.805 15.235 5.881 21.124.089 7.749-3.861 31.801 10.621 45.168-2.741 13.223-13.224-.826-36.787 2.683-45.045 8.269-3.518 31.823 10.538 45.046-2.684 13.226-13.224-.824-36.787 2.685-45.046 8.281-3.519 31.822 10.539 45.045-2.684 13.226-13.224-.824-36.787 2.685-45.046 8.232-3.501 31.832 10.525 45.047-2.685 13.361-13.363-1.094-37.458 2.739-45.167 5.77-5.864 5.739-15.295-.089-21.124-5.857-5.858-15.355-5.858-21.213 0-11.823 11.823-9.51 28.514-7.283 40.447-11.933-2.227-28.623-4.54-40.446 7.282-11.823 11.823-9.51 28.514-7.283 40.447-11.933-2.226-28.625-4.541-40.447 7.283-11.823 11.823-9.509 28.514-7.282 40.447-11.935-2.227-28.625-4.541-40.447 7.282-11.823 11.823-9.51 28.514-7.283 40.447-11.934-2.225-28.627-4.538-40.449 7.285z"/><path d="m375.049 68.033c5.858-5.858 5.858-15.355 0-21.213s-15.355-5.858-21.213 0-5.858 15.355 0 21.213 15.355 5.858 21.213 0z"/><circle cx="470.508" cy="163.493" r="15"/><path d="m438.688 301.379c-5.858 5.858-5.858 15.355 0 21.213s15.355 5.858 21.213 0 5.858-15.355 0-21.213c-5.857-5.858-15.355-5.858-21.213 0z"/><path d="m226.556 89.246c5.858-5.858 5.858-15.355 0-21.213s-15.355-5.858-21.213 0c-5.858 5.857-5.858 15.355 0 21.213s15.356 5.858 21.213 0z"/></g></svg>